<svg xmlns="http://www.w3.org/2000/svg" viewBox="0 0 200 200" fill="none" role="img" aria-label="Robot wanita">
  <defs>
    <linearGradient id="f-bg" x1="30" y1="20" x2="170" y2="180" gradientUnits="userSpaceOnUse">
      <stop stop-color="#FCE7F3"/>
      <stop offset="1" stop-color="#FDF2F8"/>
    </linearGradient>
    <linearGradient id="f-head" x1="70" y1="50" x2="130" y2="120" gradientUnits="userSpaceOnUse">
      <stop stop-color="#FFF1F2"/>
      <stop offset="1" stop-color="#FFE4E6"/>
    </linearGradient>
    <linearGradient id="f-body" x1="75" y1="118" x2="125" y2="178" gradientUnits="userSpaceOnUse">
      <stop stop-color="#EC4899"/>
      <stop offset="1" stop-color="#DB2777"/>
    </linearGradient>
  </defs>
  <rect width="200" height="200" fill="url(#f-bg)"/>
  <circle cx="164" cy="34" r="18" fill="#FBCFE8" opacity="0.65"/>
  <circle cx="36" cy="168" r="14" fill="#F9A8D4" opacity="0.45"/>
  <rect x="62" y="132" width="76" height="52" rx="18" fill="url(#f-body)"/>
  <rect x="78" y="148" width="44" height="28" rx="10" fill="#BE185D" opacity="0.32"/>
  <circle cx="100" cy="158" r="6" fill="#F9A8D4"/>
  <rect x="88" y="176" width="24" height="8" rx="4" fill="#64748B"/>
  <path d="M68 56c8-12 20-18 32-18s24 6 32 18" fill="#F472B6" opacity="0.55"/>
  <rect x="76" y="52" width="48" height="44" rx="16" fill="url(#f-head)" stroke="#FBCFE8" stroke-width="3"/>
  <path d="M72 48c10-8 22-12 28-12s18 4 28 12" fill="#DB2777" opacity="0.75"/>
  <circle cx="82" cy="46" r="4" fill="#F472B6"/>
  <circle cx="118" cy="46" r="4" fill="#F472B6"/>
  <rect x="88" y="68" width="10" height="10" rx="3" fill="#DB2777"/>
  <rect x="102" y="68" width="10" height="10" rx="3" fill="#DB2777"/>
  <circle cx="93" cy="73" r="2.5" fill="#FCE7F3"/>
  <circle cx="107" cy="73" r="2.5" fill="#FCE7F3"/>
  <path d="M87 62l3 2M110 62l-3 2" stroke="#BE185D" stroke-width="2" stroke-linecap="round"/>
  <path d="M92 86c2 2 6 3 8 3s6-1 8-3" stroke="#DB2777" stroke-width="2.5" stroke-linecap="round"/>
  <rect x="58" y="64" width="8" height="16" rx="4" fill="#FDA4AF"/>
  <rect x="134" y="64" width="8" height="16" rx="4" fill="#FDA4AF"/>
</svg>
