<svg xmlns="http://www.w3.org/2000/svg" viewBox="0 0 200 200" fill="none" role="img" aria-label="Robot pria">
  <defs>
    <linearGradient id="m-bg" x1="30" y1="20" x2="170" y2="180" gradientUnits="userSpaceOnUse">
      <stop stop-color="#DBEAFE"/>
      <stop offset="1" stop-color="#EFF6FF"/>
    </linearGradient>
    <linearGradient id="m-head" x1="70" y1="50" x2="130" y2="120" gradientUnits="userSpaceOnUse">
      <stop stop-color="#F8FAFC"/>
      <stop offset="1" stop-color="#E2E8F0"/>
    </linearGradient>
    <linearGradient id="m-body" x1="75" y1="118" x2="125" y2="178" gradientUnits="userSpaceOnUse">
      <stop stop-color="#2563EB"/>
      <stop offset="1" stop-color="#1D4ED8"/>
    </linearGradient>
  </defs>
  <rect width="200" height="200" fill="url(#m-bg)"/>
  <circle cx="164" cy="34" r="18" fill="#BFDBFE" opacity="0.6"/>
  <circle cx="36" cy="168" r="14" fill="#93C5FD" opacity="0.45"/>
  <rect x="62" y="132" width="76" height="52" rx="18" fill="url(#m-body)"/>
  <rect x="78" y="148" width="44" height="28" rx="10" fill="#1E40AF" opacity="0.35"/>
  <circle cx="100" cy="158" r="6" fill="#60A5FA"/>
  <rect x="88" y="176" width="24" height="8" rx="4" fill="#64748B"/>
  <rect x="76" y="52" width="48" height="44" rx="14" fill="url(#m-head)" stroke="#CBD5E1" stroke-width="3"/>
  <rect x="84" y="44" width="32" height="10" rx="5" fill="#64748B"/>
  <circle cx="100" cy="40" r="4" fill="#2563EB"/>
  <rect x="88" y="68" width="10" height="10" rx="3" fill="#2563EB"/>
  <rect x="102" y="68" width="10" height="10" rx="3" fill="#2563EB"/>
  <circle cx="93" cy="73" r="2.5" fill="#DBEAFE"/>
  <circle cx="107" cy="73" r="2.5" fill="#DBEAFE"/>
  <path d="M92 86h16" stroke="#2563EB" stroke-width="3" stroke-linecap="round"/>
  <path d="M94 86c2 2 10 2 12 0" stroke="#1D4ED8" stroke-width="2" stroke-linecap="round"/>
  <rect x="58" y="62" width="8" height="18" rx="4" fill="#94A3B8"/>
  <rect x="134" y="62" width="8" height="18" rx="4" fill="#94A3B8"/>
  <circle cx="62" cy="58" r="5" fill="#64748B"/>
  <circle cx="138" cy="58" r="5" fill="#64748B"/>
</svg>
